<?xml version="1.0"?>
<svg xmlns="http://www.w3.org/2000/svg" xmlns:xlink="http://www.w3.org/1999/xlink" version="1.1" id="Layer_1" x="0px" y="0px" viewBox="0 0 512 512" style="enable-background:new 0 0 512 512;" xml:space="preserve" width="512px" height="512px"><g><g>
	<g>
		<path d="M9.002,0c-4.661,0-8.44,3.778-8.44,8.44v93.543c0,4.661,3.779,8.44,8.44,8.44s8.44-3.778,8.44-8.44V8.44    C17.442,3.778,13.663,0,9.002,0z" data-original="#000000" class="active-path" data-old_color="#000000" fill="#FFFFFF"/>
	</g>
</g><g>
	<g>
		<path d="M502.998,495.121h-62.607V298.192c0-4.662-3.778-8.44-8.44-8.44h-74.677c-4.662,0-8.44,3.778-8.44,8.44v109.72    c0,4.662,3.778,8.44,8.44,8.44c4.662,0,8.44-3.778,8.44-8.44v-101.28h57.797v188.489h-57.797V441.67c0-4.662-3.778-8.44-8.44-8.44    c-4.662,0-8.44,3.778-8.44,8.44v53.451h-44.5v-290.24c0-4.662-3.778-8.44-8.44-8.44h-74.677c-4.661,0-8.44,3.778-8.44,8.44v290.24    H168.28V120.967c0-4.662-3.779-8.44-8.44-8.44H85.163c-4.661,0-8.44,3.778-8.44,8.44v95.648c0,4.662,3.779,8.44,8.44,8.44    s8.44-3.778,8.44-8.44v-87.209H151.4v365.714H93.603V250.374c0-4.662-3.779-8.44-8.44-8.44s-8.44,3.778-8.44,8.44v244.747H17.442    v-359.38c0-4.662-3.779-8.44-8.44-8.44s-8.44,3.778-8.44,8.44v367.82c0,4.662,3.779,8.44,8.44,8.44h76.161h74.677h61.378h74.677    h61.38h74.677h71.046c4.662,0,8.44-3.778,8.44-8.44C511.437,498.898,507.66,495.121,502.998,495.121z M287.456,495.121h-57.797    v-281.8h57.797V495.121z" data-original="#000000" class="active-path" data-old_color="#000000" fill="#FFFFFF"/>
	</g>
</g></g> </svg>
