<svg xmlns="http://www.w3.org/2000/svg" viewBox="0 0 100 100" width="100px" height="100px"><path fill="#f1bc19" d="M77 12A1 1 0 1 0 77 14A1 1 0 1 0 77 12Z"/><path fill="#e4e4f9" d="M50 13A37 37 0 1 0 50 87A37 37 0 1 0 50 13Z"/><path fill="#f1bc19" d="M83 11A4 4 0 1 0 83 19A4 4 0 1 0 83 11Z"/><path fill="#8889b9" d="M87 22A2 2 0 1 0 87 26A2 2 0 1 0 87 22Z"/><path fill="#fbcd59" d="M81 74A2 2 0 1 0 81 78 2 2 0 1 0 81 74zM15 59A4 4 0 1 0 15 67 4 4 0 1 0 15 59z"/><path fill="#8889b9" d="M25 85A2 2 0 1 0 25 89A2 2 0 1 0 25 85Z"/><path fill="#fff" d="M79.5 32A1.5 1.5 0 1 0 79.5 35A1.5 1.5 0 1 0 79.5 32Z"/><path fill="#fabf82" d="M26.452,70.3c-0.966,0-1.752-0.788-1.752-1.757V35.457c0-0.969,0.786-1.757,1.752-1.757h46.096 c0.966,0,1.752,0.788,1.752,1.757v33.087c-0.001,0.968-0.786,1.756-1.752,1.756H26.452z"/><path fill="#472b29" d="M72.548,34.4c0.58,0,1.052,0.474,1.052,1.057v33.086c0,0.583-0.472,1.057-1.052,1.057H26.452 c-0.58,0-1.052-0.474-1.052-1.057V35.457c0-0.583,0.472-1.057,1.052-1.057H72.548 M72.548,33H26.452 C25.103,33,24,34.106,24,35.457v33.086C24,69.895,25.104,71,26.452,71h46.096c1.348,0,2.451-1.105,2.452-2.456V35.457 C75,34.105,73.896,33,72.548,33L72.548,33z"/><path fill="#f69272" d="M46.417 69.563L46.417 34.375 51.583 34.375 51.583 35.343 51.583 69.563 46.417 69.563"/><path fill="#fef6aa" d="M70.097,63.5H74.5v0.522v3.034c0,2.569-0.406,3.381-2.847,3.444l-4.184-0.031l0.009-4.735 C67.477,64.659,69.034,63.5,70.097,63.5z"/><path fill="#472b29" d="M71.666,71l-4.698-0.035l0.01-5.232c0-1.381,1.786-2.732,3.119-2.732H75v4.057 C75,69.725,74.519,70.927,71.666,71z M67.97,69.973L71.657,70C73.669,69.948,74,69.535,74,67.057V64h-3.903 c-0.806,0-2.119,0.969-2.119,1.733L67.97,69.973z"/><path fill="#b3b2c3" d="M41.077,32.081c-0.27-2.473,2.162-5.581,3.689-5.581h8.517c1.53,0,3.662,3.416,3.74,5.581H59 c-0.259-4.131-1.864-8.581-5.149-8.581h-9.654c-2.455,0-4.938,4.457-5.197,8.581H41.077z"/><path fill="#472b29" d="M59.532 32.581H56.54l-.018-.482C56.447 29.998 54.361 27 53.282 27h-8.517c-.426 0-1.054.405-1.639 1.059-.881.982-1.703 2.59-1.553 3.969l.061.554h-3.167l.033-.531c.263-4.185 2.808-9.05 5.695-9.05h9.655c3.75 0 5.386 4.875 5.647 9.05L59.532 32.581zM57.479 31.581h.981C58.11 27.725 56.587 24 53.852 24h-9.655c-1.983 0-4.236 3.741-4.651 7.581h1.013c.039-1.622.969-3.235 1.824-4.19C42.848 26.871 43.777 26 44.766 26h8.517C55.025 26 57.14 29.207 57.479 31.581zM71 66A1 1 0 1 0 71 68 1 1 0 1 0 71 66z"/><path fill="#fef6aa" d="M31.491,65.734l0.009,4.735L27.316,70.5c-2.441-0.063-2.847-0.875-2.847-3.444v-3.034V63.5h4.403 C29.935,63.5,31.491,64.659,31.491,65.734z"/><path fill="#472b29" d="M27.319,71c-2.869-0.073-3.351-1.275-3.351-3.943V63h4.903c1.333,0,3.118,1.351,3.119,2.732 l0.01,5.232L27.319,71z M24.969,64v3.057c0,2.479,0.331,2.892,2.359,2.943l3.671-0.027l-0.008-4.239 c0-0.765-1.313-1.733-2.119-1.733H24.969z"/><g><path fill="#472b29" d="M27.969 66A1 1 0 1 0 27.969 68A1 1 0 1 0 27.969 66Z"/></g><g><path fill="#b3b2c3" d="M43.223,33.542h-6.321c-0.176,0-0.318-0.243-0.318-0.541l0.001-0.96c0-0.297,0.143-0.54,0.318-0.54 h6.321c0.176,0,0.318,0.243,0.318,0.541v0.96C43.541,33.298,43.397,33.542,43.223,33.542z"/><path fill="#472b29" d="M43.223,34.042h-6.321c-0.467,0-0.818-0.448-0.818-1.042l0.001-0.961 c0-0.592,0.352-1.039,0.818-1.039h6.321c0.467,0,0.818,0.447,0.818,1.041v0.961C44.04,33.596,43.688,34.042,43.223,34.042z M37.085,33.042h5.955c0.001-0.013,0.002-0.026,0.002-0.042v-0.959c0-0.015-0.001-0.028-0.002-0.041h-5.954 c-0.001,0.013-0.002,0.025-0.002,0.04l-0.001,0.961C37.083,33.016,37.084,33.029,37.085,33.042z"/></g><g><path fill="#b3b2c3" d="M61.223,33.542h-6.321c-0.176,0-0.318-0.243-0.318-0.541l0.001-0.96c0-0.297,0.143-0.54,0.318-0.54 h6.321c0.176,0,0.318,0.243,0.318,0.541v0.96C61.541,33.298,61.397,33.542,61.223,33.542z"/><path fill="#472b29" d="M61.223,34.042h-6.321c-0.467,0-0.818-0.448-0.818-1.042l0.001-0.961 c0-0.592,0.352-1.039,0.818-1.039h6.321c0.467,0,0.818,0.447,0.818,1.041v0.961C62.04,33.596,61.688,34.042,61.223,34.042z M55.085,33.042h5.955c0.001-0.013,0.002-0.026,0.002-0.042v-0.959c0-0.015-0.001-0.028-0.002-0.041h-5.954 c-0.001,0.013-0.002,0.025-0.002,0.04l-0.001,0.961C55.083,33.016,55.084,33.029,55.085,33.042z"/></g><g><path fill="#472b29" d="M44.5,53h-19c-0.276,0-0.5-0.224-0.5-0.5s0.224-0.5,0.5-0.5h19c0.276,0,0.5,0.224,0.5,0.5 S44.776,53,44.5,53z"/></g><g><path fill="#472b29" d="M51.5,38.875c-0.138,0-0.25-0.112-0.25-0.25V35.5c0-0.138,0.112-0.25,0.25-0.25 s0.25,0.112,0.25,0.25v3.125C51.75,38.763,51.638,38.875,51.5,38.875z"/></g><g><path fill="#472b29" d="M46.5,68.75c-0.138,0-0.25-0.112-0.25-0.25v-3c0-0.138,0.112-0.25,0.25-0.25s0.25,0.112,0.25,0.25v3 C46.75,68.638,46.638,68.75,46.5,68.75z"/></g><g><path fill="#472b29" d="M51.5,70.167c-0.138,0-0.25-0.112-0.25-0.25V40.458c0-0.138,0.112-0.25,0.25-0.25 s0.25,0.112,0.25,0.25v29.459C51.75,70.055,51.638,70.167,51.5,70.167z"/></g><g><path fill="#472b29" d="M46.5,63.75c-0.138,0-0.25-0.112-0.25-0.25v-30c0-0.138,0.112-0.25,0.25-0.25s0.25,0.112,0.25,0.25 v30C46.75,63.638,46.638,63.75,46.5,63.75z"/></g><g><path fill="#472b29" d="M74.5,53h-19c-0.276,0-0.5-0.224-0.5-0.5s0.224-0.5,0.5-0.5h19c0.276,0,0.5,0.224,0.5,0.5 S74.776,53,74.5,53z"/></g><g><path fill="#fef6aa" d="M48.309,43.572l1.419-0.009c1.524-0.01,2.772,1.267,2.782,2.846l0.021,3.357 c0.01,1.579-1.222,2.872-2.746,2.882l-1.42,0.009c-1.524,0.01-2.772-1.267-2.782-2.846l-0.021-3.357 C45.553,44.874,46.786,43.581,48.309,43.572z M49.824,51.241c0.722-0.005,1.306-0.616,1.302-1.362l-0.022-3.567 c-0.005-0.746-0.596-1.349-1.319-1.345l-1.514,0.01c-0.722,0.005-1.306,0.616-1.302,1.362l0.022,3.567 c0.005,0.746,0.596,1.349,1.319,1.345L49.824,51.241z"/><path fill="#472b29" d="M48.348,52.906c-0.799,0-1.551-0.32-2.12-0.902c-0.572-0.585-0.89-1.364-0.895-2.192l-0.021-3.356 c-0.011-1.718,1.333-3.123,2.995-3.134l1.419-0.009c0.007,0,0.014,0,0.02,0c0.799,0,1.551,0.32,2.12,0.902 c0.572,0.585,0.89,1.364,0.895,2.192l0.021,3.356c0.011,1.718-1.333,3.123-2.994,3.134l-1.42,0.009 C48.36,52.906,48.354,52.906,48.348,52.906z M48.312,43.821c-1.387,0.009-2.508,1.188-2.499,2.63l0.021,3.356 c0.004,0.699,0.271,1.354,0.752,1.847c0.475,0.485,1.1,0.752,1.763,0.752c0.006,0,0.011,0,0.016,0l1.42-0.009 c1.387-0.009,2.507-1.188,2.498-2.63l-0.021-3.356c-0.004-0.699-0.271-1.354-0.752-1.847c-0.475-0.485-1.1-0.752-1.763-0.752 c-0.006,0-0.011,0-0.016,0L48.312,43.821z M48.303,51.501c-0.856,0-1.556-0.713-1.562-1.594l-0.022-3.566 c-0.005-0.885,0.691-1.608,1.551-1.614l1.513-0.01c0.003,0,0.006,0,0.009,0c0.856,0,1.557,0.713,1.563,1.594l0.022,3.566 c0.005,0.885-0.69,1.608-1.55,1.614l-1.515,0.01C48.309,51.501,48.306,51.501,48.303,51.501z M49.791,45.217 c-0.002,0-0.004,0-0.006,0l-1.512,0.01c-0.585,0.004-1.058,0.502-1.055,1.111l0.022,3.565c0.004,0.606,0.479,1.098,1.062,1.098 c0.002,0,0.004,0,0.006,0l1.514-0.01c0.584-0.004,1.057-0.502,1.054-1.111l-0.022-3.565C50.85,45.708,50.373,45.217,49.791,45.217z"/></g><g><path fill="#fef6aa" d="M48.705,50h0.686c0.112,0,0.203,0.095,0.203,0.212l-0.002,3.576c0,0.117-0.091,0.212-0.203,0.212 h-0.686c-0.112,0-0.203-0.095-0.203-0.212l0.002-3.576C48.502,50.095,48.593,50,48.705,50z"/><path fill="#472b29" d="M49.39,54.25h-0.687c-0.25,0-0.453-0.207-0.453-0.462l0.002-3.576c0-0.255,0.203-0.462,0.452-0.462 h0.687c0.25,0,0.453,0.207,0.453,0.462l-0.002,3.576C49.842,54.043,49.639,54.25,49.39,54.25z M48.752,50.247l-0.002,3.541 l0.64-0.038l-0.046-3.538L48.752,50.247z M48.711,50.25h-0.007C48.707,50.25,48.709,50.25,48.711,50.25z"/></g></svg>